<svg width="33" height="32" viewBox="0 0 33 32" fill="none" xmlns="http://www.w3.org/2000/svg">
<rect x="0.848633" width="32" height="32" rx="8" fill="#24292F"/>
<g clip-path="url(#clip0_1397_1300)">
<path fill-rule="evenodd" clip-rule="evenodd" d="M16.8188 6C11.3056 6 6.84863 10.5833 6.84863 16.2535C6.84863 20.786 9.70435 24.6227 13.666 25.9806C14.1613 26.0827 14.3427 25.76 14.3427 25.4885C14.3427 25.2508 14.3264 24.436 14.3264 23.5871C11.5529 24.1983 10.9754 22.3648 10.9754 22.3648C10.5297 21.1765 9.86925 20.871 9.86925 20.871C8.96149 20.2429 9.93537 20.2429 9.93537 20.2429C10.9423 20.3108 11.4707 21.2954 11.4707 21.2954C12.3619 22.8571 13.798 22.4158 14.3758 22.1442C14.4582 21.4821 14.7225 21.0237 15.0031 20.7692C12.7911 20.5315 10.4637 19.6488 10.4637 15.7102C10.4637 14.5898 10.8597 13.6731 11.487 12.9602C11.388 12.7056 11.0413 11.6529 11.5862 10.244C11.5862 10.244 12.428 9.97229 14.3262 11.2965C15.1389 11.072 15.9769 10.9578 16.8188 10.9569C17.6607 10.9569 18.5188 11.0758 19.3113 11.2965C21.2097 9.97229 22.0515 10.244 22.0515 10.244C22.5964 11.6529 22.2494 12.7056 22.1505 12.9602C22.7943 13.6731 23.1739 14.5898 23.1739 15.7102C23.1739 19.6488 20.8466 20.5144 18.618 20.7692C18.9813 21.0917 19.2948 21.7027 19.2948 22.6704C19.2948 24.0454 19.2784 25.149 19.2784 25.4883C19.2784 25.76 19.4601 26.0827 19.9552 25.9808C23.9168 24.6225 26.7725 20.786 26.7725 16.2535C26.7888 10.5833 22.3156 6 16.8188 6Z" fill="white"/>
</g>
<defs>
<clipPath id="clip0_1397_1300">
<rect width="20" height="20" fill="white" transform="translate(6.84863 6)"/>
</clipPath>
</defs>
</svg>
