<svg width="33" height="32" viewBox="0 0 33 32" fill="none" xmlns="http://www.w3.org/2000/svg">
<rect x="0.848633" width="32" height="32" rx="8" fill="black"/>
<path d="M16.8486 16C16.8486 14.159 18.341 12.6666 20.182 12.6666C22.0229 12.6666 23.5153 14.159 23.5153 16C23.5153 17.8409 22.0229 19.3333 20.182 19.3333C18.341 19.3333 16.8486 17.8409 16.8486 16Z" fill="#1ABCFE"/>
<path d="M10.182 22.6666C10.182 20.8257 11.6743 19.3333 13.5153 19.3333H16.8486V22.6666C16.8486 24.5075 15.3563 25.9999 13.5153 25.9999C11.6743 25.9999 10.182 24.5075 10.182 22.6666Z" fill="#0ACF83"/>
<path d="M16.8486 6V12.6666H20.182C22.0229 12.6666 23.5153 11.1743 23.5153 9.33333C23.5153 7.49238 22.0229 6 20.182 6H16.8486Z" fill="#FF7262"/>
<path d="M10.182 9.33333C10.182 11.1743 11.6743 12.6666 13.5153 12.6666H16.8486V6H13.5153C11.6743 6 10.182 7.49238 10.182 9.33333Z" fill="#F24E1E"/>
<path d="M10.182 16C10.182 17.8409 11.6743 19.3333 13.5153 19.3333H16.8486V12.6666H13.5153C11.6743 12.6666 10.182 14.159 10.182 16Z" fill="#A259FF"/>
</svg>
