<svg width="33" height="32" viewBox="0 0 33 32" fill="none" xmlns="http://www.w3.org/2000/svg">
<rect x="1.34863" y="0.5" width="31" height="31" rx="7.5" stroke="#F19F39"/>
<path d="M11.8686 9.02H15.7086L20.8286 23.5H17.4486L16.2486 19.98H11.4286L10.3086 23.5H7.12863L11.8686 9.02ZM15.6086 17.52L13.8086 11.92H13.7286L11.9486 17.52H15.6086ZM25.5683 9.88C25.5683 11.04 24.8883 11.72 23.7483 11.72C22.5883 11.72 21.9283 11.04 21.9283 9.88C21.9283 8.72 22.5883 8.06 23.7483 8.06C24.8883 8.06 25.5683 8.72 25.5683 9.88ZM25.2483 13.08V23.5H22.2283V13.08H25.2483Z" fill="#F19F39"/>
</svg>
