<svg width="33" height="32" viewBox="0 0 33 32" fill="none" xmlns="http://www.w3.org/2000/svg">
<rect x="1.34863" y="0.5" width="31" height="31" rx="7.5" stroke="#9999F8"/>
<path d="M8.86863 9.02H12.7086L17.8286 23.5H14.4486L13.2486 19.98H8.42863L7.30863 23.5H4.12863L8.86863 9.02ZM12.6086 17.52L10.8086 11.92H10.7286L8.94863 17.52H12.6086ZM28.6283 16.38V23.5H25.6083V16.9C25.6083 15.78 25.1683 15.3 24.2283 15.3C23.4083 15.3 22.5883 15.76 22.1883 16.12V23.5H19.1683V13.08H21.8483L22.0083 14.12C22.7683 13.42 23.9083 12.86 25.3283 12.86C27.6283 12.86 28.6283 14 28.6283 16.38Z" fill="#9999F8"/>
</svg>
