<svg width="33" height="32" viewBox="0 0 33 32" fill="none" xmlns="http://www.w3.org/2000/svg">
<rect x="1.34863" y="0.5" width="31" height="31" rx="7.5" stroke="#9999F8"/>
<path d="M9.36863 9.02H13.2086L18.3286 23.5H14.9486L13.7486 19.98H8.92863L7.80863 23.5H4.62863L9.36863 9.02ZM13.1086 17.52L11.3086 11.92H11.2286L9.44863 17.52H13.1086ZM24.113 23.74C20.253 23.74 19.013 21.14 19.013 18.32C19.013 14.56 21.313 12.86 24.113 12.86C27.273 12.86 28.593 14.78 28.593 17.68C28.593 18.02 28.573 18.68 28.533 19.04H22.193C22.253 20.76 22.973 21.4 24.293 21.4C25.373 21.4 25.793 20.8 25.993 19.92L28.533 20.54C28.153 22.48 26.593 23.74 24.113 23.74ZM22.233 17.12H25.473C25.473 15.62 24.933 15.04 23.953 15.04C23.093 15.04 22.253 15.6 22.233 17.12Z" fill="#9999F8"/>
</svg>
