<svg width="20" height="20" viewBox="0 0 20 20" fill="none" xmlns="http://www.w3.org/2000/svg">
<path d="M5.83334 14.1666C4.68056 14.1666 3.69792 13.7603 2.88542 12.9478C2.07292 12.1353 1.66667 11.1527 1.66667 9.99992C1.66667 8.84714 2.07292 7.8645 2.88542 7.052C3.69792 6.2395 4.68056 5.83325 5.83334 5.83325H8.33334C8.56945 5.83325 8.76737 5.91311 8.92709 6.07284C9.08681 6.23256 9.16667 6.43047 9.16667 6.66659C9.16667 6.9027 9.08681 7.10061 8.92709 7.26034C8.76737 7.42006 8.56945 7.49992 8.33334 7.49992H5.83334C5.13889 7.49992 4.54862 7.74297 4.0625 8.22909C3.57639 8.7152 3.33334 9.30547 3.33334 9.99992C3.33334 10.6944 3.57639 11.2846 4.0625 11.7708C4.54862 12.2569 5.13889 12.4999 5.83334 12.4999H8.33334C8.56945 12.4999 8.76737 12.5798 8.92709 12.7395C9.08681 12.8992 9.16667 13.0971 9.16667 13.3333C9.16667 13.5694 9.08681 13.7673 8.92709 13.927C8.76737 14.0867 8.56945 14.1666 8.33334 14.1666H5.83334ZM7.5 10.8333C7.26389 10.8333 7.06598 10.7534 6.90625 10.5937C6.74653 10.4339 6.66667 10.236 6.66667 9.99992C6.66667 9.76381 6.74653 9.56589 6.90625 9.40617C7.06598 9.24645 7.26389 9.16659 7.5 9.16659H12.5C12.7361 9.16659 12.934 9.24645 13.0938 9.40617C13.2535 9.56589 13.3333 9.76381 13.3333 9.99992C13.3333 10.236 13.2535 10.4339 13.0938 10.5937C12.934 10.7534 12.7361 10.8333 12.5 10.8333H7.5ZM11.6667 14.1666C11.4306 14.1666 11.2326 14.0867 11.0729 13.927C10.9132 13.7673 10.8333 13.5694 10.8333 13.3333C10.8333 13.0971 10.9132 12.8992 11.0729 12.7395C11.2326 12.5798 11.4306 12.4999 11.6667 12.4999H14.1667C14.8611 12.4999 15.4514 12.2569 15.9375 11.7708C16.4236 11.2846 16.6667 10.6944 16.6667 9.99992C16.6667 9.30547 16.4236 8.7152 15.9375 8.22909C15.4514 7.74297 14.8611 7.49992 14.1667 7.49992H11.6667C11.4306 7.49992 11.2326 7.42006 11.0729 7.26034C10.9132 7.10061 10.8333 6.9027 10.8333 6.66659C10.8333 6.43047 10.9132 6.23256 11.0729 6.07284C11.2326 5.91311 11.4306 5.83325 11.6667 5.83325H14.1667C15.3194 5.83325 16.3021 6.2395 17.1146 7.052C17.9271 7.8645 18.3333 8.84714 18.3333 9.99992C18.3333 11.1527 17.9271 12.1353 17.1146 12.9478C16.3021 13.7603 15.3194 14.1666 14.1667 14.1666H11.6667Z" fill="black"/>
</svg>
