<svg width="33" height="32" viewBox="0 0 33 32" fill="none" xmlns="http://www.w3.org/2000/svg">
<rect x="1.34863" y="0.5" width="31" height="31" rx="7.5" stroke="#55A3F4"/>
<path d="M10.3886 18.82V23.5H7.32863V9.02H12.8086C16.5086 9.02 17.6286 11.24 17.6286 13.54C17.6286 17.02 15.7286 18.82 11.9686 18.82H10.3886ZM10.3886 16.34H11.6286C13.2086 16.34 14.4686 15.88 14.4686 13.76C14.4686 11.9 13.3686 11.5 11.8686 11.5H10.3886V16.34ZM22.6227 23.74C19.9627 23.74 18.5427 22.72 18.2027 20.98L20.6427 20.14C20.8827 20.96 21.3027 21.74 22.7227 21.74C23.7427 21.74 24.3027 21.4 24.3027 20.72C24.3027 19.92 23.4827 19.7 22.3027 19.48C20.6427 19.16 18.5427 18.78 18.5427 16.24C18.5427 13.96 20.5427 12.86 22.8827 12.86C25.2427 12.86 26.5427 13.9 27.0427 15.66L24.6227 16.38C24.3827 15.48 23.9427 14.86 22.8427 14.86C21.8427 14.86 21.4227 15.28 21.4227 15.86C21.4227 16.68 22.2627 16.84 23.5627 17.08C25.2827 17.4 27.2227 17.8 27.2227 20.24C27.2227 22.6 25.2027 23.74 22.6227 23.74Z" fill="#55A3F4"/>
</svg>
